<svg width="1728" height="384" viewBox="0 0 1728 384" fill="none" xmlns="http://www.w3.org/2000/svg">
<g clip-path="url(#clip0_368_80)">
<path d="M0 115.2L57.6 102.36C115.2 90 230.4 63.6 345.6 63.96C460.8 63.6 576 90 691.2 108.84C806.4 128.4 921.6 140.4 1036.8 134.4C1152 128.4 1267.2 102 1382.4 76.8C1497.6 51.6 1612.8 25.2 1670.4 12.84L1728 0V384H1670.4C1612.8 384 1497.6 384 1382.4 384C1267.2 384 1152 384 1036.8 384C921.6 384 806.4 384 691.2 384C576 384 460.8 384 345.6 384C230.4 384 115.2 384 57.6 384H0V115.2Z" fill="black"/>
</g>
<defs>
<clipPath id="clip0_368_80">
<rect width="1728" height="384" fill="white"/>
</clipPath>
</defs>
</svg>
